<svg width="96" height="15" viewBox="0 0 96 15" fill="none" xmlns="http://www.w3.org/2000/svg">
<g clip-path="url(#clip0_1_2)">
<path d="M3.56 5.4C3.56 5.184 3.608 4.96 3.704 4.728C3.8 4.488 3.928 4.268 4.088 4.068C4.248 3.86 4.42 3.704 4.604 3.6L8.24 1.5V2.7L4.604 4.8V7.44L8.24 5.34V6.54L4.604 8.64V11.28L8.24 9.18V10.38L4.604 12.48C4.324 12.64 4.08 12.66 3.872 12.54C3.664 12.42 3.56 12.2 3.56 11.88V5.4ZM8.24 9.18L4.604 11.28L3.56 10.68L7.196 8.58L8.24 9.18ZM8.24 5.34L4.604 7.44L3.56 6.84L7.196 4.74L8.24 5.34ZM8.24 1.5L4.604 3.6C4.42 3.704 4.248 3.86 4.088 4.068C3.928 4.268 3.8 4.488 3.704 4.728C3.608 4.96 3.56 5.184 3.56 5.4V11.88C3.56 12.2 3.664 12.42 3.872 12.54L2.828 11.94C2.62 11.82 2.516 11.6 2.516 11.28V4.8C2.516 4.584 2.564 4.36 2.66 4.128C2.756 3.888 2.884 3.668 3.044 3.468C3.204 3.26 3.376 3.104 3.56 3L7.196 0.899999L8.24 1.5ZM13.4417 10.8V8.4L11.3657 9.6C11.0857 9.76 10.8417 9.78 10.6337 9.66C10.4257 9.54 10.3217 9.32 10.3217 9V6.6L11.3657 6V8.4L13.4417 7.2C13.7137 7.04 13.9537 7.02 14.1617 7.14C14.3697 7.26 14.4737 7.48 14.4737 7.8V10.2L13.4417 10.8ZM10.3217 12.6V11.4C10.3217 11.184 10.3697 10.96 10.4657 10.728C10.5617 10.488 10.6897 10.268 10.8497 10.068C11.0097 9.86 11.1817 9.704 11.3657 9.6V12L10.3217 12.6ZM13.4417 7.2V4.8L14.4737 4.2V5.4C14.4737 5.608 14.4257 5.832 14.3297 6.072C14.2337 6.312 14.1057 6.536 13.9457 6.744C13.7937 6.944 13.6257 7.096 13.4417 7.2ZM13.4417 8.4V10.8L12.3977 10.2V7.8L13.4417 8.4ZM11.3657 9.6C11.1817 9.704 11.0097 9.86 10.8497 10.068C10.6897 10.268 10.5617 10.488 10.4657 10.728C10.3697 10.96 10.3217 11.184 10.3217 11.4V12.6L9.27772 12V10.8C9.27772 10.584 9.32572 10.36 9.42172 10.128C9.51772 9.888 9.64572 9.668 9.80572 9.468C9.96572 9.26 10.1377 9.104 10.3217 9L11.3657 9.6ZM14.4737 4.2L13.4417 4.8L12.3977 4.2L13.4417 3.6L14.4737 4.2ZM14.1617 7.14C13.9537 7.02 13.7137 7.04 13.4417 7.2L11.3657 8.4L10.3217 7.8L12.3977 6.6C12.6777 6.44 12.9217 6.42 13.1297 6.54L14.1617 7.14ZM11.3657 6L10.3217 6.6L9.27772 6L10.3217 5.4L11.3657 6ZM10.3217 6.6V9C10.3217 9.32 10.4257 9.54 10.6337 9.66L9.58972 9.06C9.38172 8.94 9.27772 8.72 9.27772 8.4V6L10.3217 6.6ZM13.4417 4.8V7.2L12.3977 6.6V4.2L13.4417 4.8ZM18.6321 4.92L19.6761 4.32C19.9481 4.16 20.1881 4.14 20.3961 4.26C20.6041 4.38 20.7081 4.6 20.7081 4.92V9C20.7081 9.208 20.6601 9.432 20.5641 9.672C20.4681 9.912 20.3401 10.136 20.1801 10.344C20.0281 10.544 19.8601 10.696 19.6761 10.8L17.6001 12V13.56L16.5561 14.16V6.12L17.6001 5.52V6.72C17.6001 6.504 17.6481 6.28 17.7441 6.048C17.8401 5.808 17.9641 5.588 18.1161 5.388C18.2761 5.18 18.4481 5.024 18.6321 4.92ZM19.6761 5.52L17.6001 6.72V10.8L19.6761 9.6V5.52ZM19.6761 5.52V9.6L18.6321 9V4.92L19.6761 5.52ZM19.6761 9.6L17.6001 10.8L16.5561 10.2L18.6321 9L19.6761 9.6ZM20.3961 4.26C20.1881 4.14 19.9481 4.16 19.6761 4.32L18.6321 4.92C18.4481 5.024 18.2761 5.18 18.1161 5.388C17.9641 5.588 17.8401 5.808 17.7441 6.048C17.6481 6.28 17.6001 6.504 17.6001 6.72L16.5561 6.12C16.5561 5.904 16.6041 5.68 16.7001 5.448C16.7961 5.208 16.9241 4.988 17.0841 4.788C17.2441 4.58 17.4161 4.424 17.6001 4.32L18.6321 3.72C18.9121 3.56 19.1561 3.54 19.3641 3.66L20.3961 4.26ZM16.5561 6.12V14.16L15.5121 13.56V5.52L16.5561 6.12ZM17.6001 5.52L16.5561 6.12L15.5121 5.52L16.5561 4.92L17.6001 5.52ZM23.8345 11.28L25.3825 10.38V11.58L23.8345 12.48C23.5545 12.64 23.3105 12.66 23.1025 12.54C22.8945 12.42 22.7905 12.2 22.7905 11.88V3L23.8345 2.4V11.28ZM23.8345 2.4L22.7905 3L21.7465 2.4L22.7905 1.8L23.8345 2.4ZM25.3825 10.38L23.8345 11.28L22.7905 10.68L24.3505 9.78L25.3825 10.38ZM22.7905 3V11.88C22.7905 12.2 22.8945 12.42 23.1025 12.54L22.0585 11.94C21.8505 11.82 21.7465 11.6 21.7465 11.28V2.4L22.7905 3ZM28.5103 5.52L30.5863 4.32C30.8583 4.16 31.0983 4.14 31.3063 4.26C31.5143 4.38 31.6183 4.6 31.6183 4.92V9.48C31.6183 9.688 31.5703 9.912 31.4743 10.152C31.3783 10.392 31.2503 10.616 31.0903 10.824C30.9383 11.024 30.7703 11.176 30.5863 11.28L28.5103 12.48C28.2303 12.64 27.9863 12.66 27.7783 12.54C27.5703 12.42 27.4663 12.2 27.4663 11.88V7.32C27.4663 7.104 27.5143 6.88 27.6103 6.648C27.7063 6.408 27.8343 6.188 27.9943 5.988C28.1543 5.78 28.3263 5.624 28.5103 5.52ZM28.5103 11.28L30.5863 10.08V5.52L28.5103 6.72V11.28ZM30.5863 5.52V10.08L29.5423 9.48V4.92L30.5863 5.52ZM30.5863 10.08L28.5103 11.28L27.4663 10.68L29.5423 9.48L30.5863 10.08ZM31.3063 4.26C31.0983 4.14 30.8583 4.16 30.5863 4.32L28.5103 5.52C28.3263 5.624 28.1543 5.78 27.9943 5.988C27.8343 6.188 27.7063 6.408 27.6103 6.648C27.5143 6.88 27.4663 7.104 27.4663 7.32V11.88C27.4663 12.2 27.5703 12.42 27.7783 12.54L26.7343 11.94C26.5263 11.82 26.4223 11.6 26.4223 11.28V6.72C26.4223 6.504 26.4703 6.28 26.5663 6.048C26.6623 5.808 26.7903 5.588 26.9503 5.388C27.1103 5.18 27.2823 5.024 27.4663 4.92L29.5423 3.72C29.8223 3.56 30.0663 3.54 30.2743 3.66L31.3063 4.26ZM33.7006 6.6L34.7446 6V7.2L35.7766 6.6C35.7766 6.384 35.8246 6.16 35.9206 5.928C36.0166 5.688 36.1446 5.468 36.3046 5.268C36.4646 5.06 36.6366 4.904 36.8206 4.8L37.8526 4.2V5.4L36.8206 6C36.8206 6.208 36.7726 6.432 36.6766 6.672C36.5806 6.912 36.4526 7.136 36.2926 7.344C36.1326 7.544 35.9606 7.696 35.7766 7.8L34.7446 8.4V12L33.7006 12.6V6.6ZM33.7006 6.6V12.6L32.6566 12V6L33.7006 6.6ZM37.8526 4.2L36.8206 4.8C36.6366 4.904 36.4646 5.06 36.3046 5.268C36.1446 5.468 36.0166 5.688 35.9206 5.928C35.8246 6.16 35.7766 6.384 35.7766 6.6L34.7446 6C34.7446 5.784 34.7926 5.56 34.8886 5.328C34.9846 5.088 35.1086 4.868 35.2606 4.668C35.4206 4.46 35.5926 4.304 35.7766 4.2L36.8206 3.6L37.8526 4.2ZM35.7766 6.6L34.7446 7.2L33.7006 6.6L34.7446 6L35.7766 6.6ZM34.7446 6L33.7006 6.6L32.6566 6L33.7006 5.4L34.7446 6ZM40.4517 5.52L42.5277 4.32C42.7997 4.16 43.0397 4.14 43.2477 4.26C43.4557 4.38 43.5597 4.6 43.5597 4.92V6.72C43.5597 6.928 43.5117 7.152 43.4157 7.392C43.3197 7.632 43.1917 7.856 43.0317 8.064C42.8797 8.264 42.7117 8.416 42.5277 8.52L41.4837 9.12C41.2117 9.28 40.9717 9.3 40.7637 9.18C40.5557 9.06 40.4517 8.84 40.4517 8.52V11.28L43.5597 9.48V10.68L40.4517 12.48C40.1717 12.64 39.9277 12.66 39.7197 12.54C39.5117 12.42 39.4077 12.2 39.4077 11.88V7.32C39.4077 7.104 39.4557 6.88 39.5517 6.648C39.6477 6.408 39.7757 6.188 39.9357 5.988C40.0957 5.78 40.2677 5.624 40.4517 5.52ZM42.5277 5.52L40.4517 6.72V8.52L42.5277 7.32V5.52ZM43.5597 9.48L40.4517 11.28L39.4077 10.68L42.5277 8.88L43.5597 9.48ZM42.5277 5.52V7.32L41.4837 6.72V4.92L42.5277 5.52ZM40.4517 8.52C40.4517 8.84 40.5557 9.06 40.7637 9.18L39.7197 8.58C39.5117 8.46 39.4077 8.24 39.4077 7.92L40.4517 8.52ZM42.5277 7.32L40.4517 8.52L39.4077 7.92L41.4837 6.72L42.5277 7.32ZM43.2477 4.26C43.0397 4.14 42.7997 4.16 42.5277 4.32L40.4517 5.52C40.2677 5.624 40.0957 5.78 39.9357 5.988C39.7757 6.188 39.6477 6.408 39.5517 6.648C39.4557 6.88 39.4077 7.104 39.4077 7.32V11.88C39.4077 12.2 39.5117 12.42 39.7197 12.54L38.6757 11.94C38.4677 11.82 38.3637 11.6 38.3637 11.28V6.72C38.3637 6.504 38.4117 6.28 38.5077 6.048C38.6037 5.808 38.7317 5.588 38.8917 5.388C39.0517 5.18 39.2237 5.024 39.4077 4.92L41.4837 3.72C41.7637 3.56 42.0077 3.54 42.2157 3.66L43.2477 4.26ZM49.8032 3.12L52.3952 1.62C52.6672 1.46 52.9072 1.44 53.1152 1.56C53.3312 1.68 53.4392 1.9 53.4392 2.22V9.9L52.3952 10.5V8.1L49.8032 9.6V12L48.7592 12.6V4.92C48.7592 4.704 48.8072 4.48 48.9032 4.248C48.9992 4.008 49.1272 3.788 49.2872 3.588C49.4472 3.38 49.6192 3.224 49.8032 3.12ZM52.3952 6.9V2.82L49.8032 4.32V8.4L52.3952 6.9ZM52.3952 8.1V10.5L51.3512 9.9V7.5L52.3952 8.1ZM52.3952 2.82V6.9L51.3512 6.3V2.22L52.3952 2.82ZM52.3952 6.9L49.8032 8.4L48.7592 7.8L51.3512 6.3L52.3952 6.9ZM53.1272 1.56C52.9112 1.44 52.6672 1.46 52.3952 1.62L49.8032 3.12C49.6192 3.224 49.4472 3.38 49.2872 3.588C49.1272 3.788 48.9992 4.008 48.9032 4.248C48.8072 4.48 48.7592 4.704 48.7592 4.92V12.6L47.7152 12V4.32C47.7152 4.104 47.7632 3.88 47.8592 3.648C47.9552 3.408 48.0832 3.188 48.2432 2.988C48.4032 2.78 48.5752 2.624 48.7592 2.52L51.3512 1.02C51.6312 0.859999 51.8752 0.839999 52.0832 0.96L53.1272 1.56ZM59.1569 8.1L56.5649 9.6V12L55.5209 12.6V3.72L59.1569 1.62C59.4289 1.46 59.6689 1.44 59.8769 1.56C60.0929 1.68 60.2009 1.9 60.2009 2.22V5.1C60.2009 5.308 60.1489 5.532 60.0449 5.772C59.9489 6.012 59.8209 6.236 59.6609 6.444C59.5089 6.644 59.3409 6.796 59.1569 6.9C59.4289 6.74 59.6689 6.72 59.8769 6.84C60.0929 6.96 60.2009 7.18 60.2009 7.5V9.9L59.1569 10.5V8.1ZM59.1569 6.9V2.82L56.5649 4.32V8.4L59.1569 6.9ZM59.1569 8.1V10.5L58.1129 9.9V7.5L59.1569 8.1ZM59.8889 6.84C59.6729 6.72 59.4289 6.74 59.1569 6.9L58.1129 6.3C58.3929 6.14 58.6369 6.12 58.8449 6.24L59.8889 6.84ZM59.1569 2.82V6.9L58.1129 6.3V2.22L59.1569 2.82ZM59.1569 6.9L56.5649 8.4L55.5209 7.8L58.1129 6.3L59.1569 6.9ZM59.8889 1.56C59.6729 1.44 59.4289 1.46 59.1569 1.62L55.5209 3.72L54.4769 3.12L58.1129 1.02C58.3929 0.859999 58.6369 0.839999 58.8449 0.96L59.8889 1.56ZM55.5209 3.72V12.6L54.4769 12V3.12L55.5209 3.72ZM63.3267 3.12L65.9187 1.62C66.1907 1.46 66.4307 1.44 66.6387 1.56C66.8547 1.68 66.9627 1.9 66.9627 2.22V3.42L65.9187 4.02V2.82L63.3267 4.32V11.28L65.9187 9.78V8.58L66.9627 7.98V9.18C66.9627 9.388 66.9107 9.612 66.8067 9.852C66.7107 10.092 66.5827 10.316 66.4227 10.524C66.2707 10.724 66.1027 10.876 65.9187 10.98L63.3267 12.48C63.0467 12.64 62.8027 12.66 62.5947 12.54C62.3867 12.42 62.2827 12.2 62.2827 11.88V4.92C62.2827 4.704 62.3307 4.48 62.4267 4.248C62.5227 4.008 62.6507 3.788 62.8107 3.588C62.9707 3.38 63.1427 3.224 63.3267 3.12ZM66.9627 7.98L65.9187 8.58L64.8747 7.98L65.9187 7.38L66.9627 7.98ZM65.9187 8.58V9.78L64.8747 9.18V7.98L65.9187 8.58ZM65.9187 9.78L63.3267 11.28L62.2827 10.68L64.8747 9.18L65.9187 9.78ZM65.9187 2.82V4.02L64.8747 3.42V2.22L65.9187 2.82ZM66.6507 1.56C66.4347 1.44 66.1907 1.46 65.9187 1.62L63.3267 3.12C63.1427 3.224 62.9707 3.38 62.8107 3.588C62.6507 3.788 62.5227 4.008 62.4267 4.248C62.3307 4.48 62.2827 4.704 62.2827 4.92V11.88C62.2827 12.2 62.3867 12.42 62.5947 12.54L61.5507 11.94C61.3427 11.82 61.2387 11.6 61.2387 11.28V4.32C61.2387 4.104 61.2867 3.88 61.3827 3.648C61.4787 3.408 61.6067 3.188 61.7667 2.988C61.9267 2.78 62.0987 2.624 62.2827 2.52L64.8747 1.02C65.1547 0.859999 65.3987 0.839999 65.6067 0.96L66.6507 1.56ZM69.0444 10.2V9L72.1644 7.2V8.4L69.0444 10.2ZM72.1644 7.2L69.0444 9L68.0004 8.4L71.1204 6.6L72.1644 7.2ZM69.0444 9V10.2L68.0004 9.6V8.4L69.0444 9ZM75.2798 3.12L77.8718 1.62C78.1438 1.46 78.3838 1.44 78.5918 1.56C78.8078 1.68 78.9158 1.9 78.9158 2.22V9.9L77.8718 10.5V8.1L75.2798 9.6V12L74.2358 12.6V4.92C74.2358 4.704 74.2838 4.48 74.3798 4.248C74.4758 4.008 74.6038 3.788 74.7638 3.588C74.9238 3.38 75.0958 3.224 75.2798 3.12ZM77.8718 6.9V2.82L75.2798 4.32V8.4L77.8718 6.9ZM77.8718 8.1V10.5L76.8278 9.9V7.5L77.8718 8.1ZM77.8718 2.82V6.9L76.8278 6.3V2.22L77.8718 2.82ZM77.8718 6.9L75.2798 8.4L74.2358 7.8L76.8278 6.3L77.8718 6.9ZM78.6038 1.56C78.3878 1.44 78.1438 1.46 77.8718 1.62L75.2798 3.12C75.0958 3.224 74.9238 3.38 74.7638 3.588C74.6038 3.788 74.4758 4.008 74.3798 4.248C74.2838 4.48 74.2358 4.704 74.2358 4.92V12.6L73.1918 12V4.32C73.1918 4.104 73.2398 3.88 73.3358 3.648C73.4318 3.408 73.5598 3.188 73.7198 2.988C73.8798 2.78 74.0518 2.624 74.2358 2.52L76.8278 1.02C77.1078 0.859999 77.3518 0.839999 77.5598 0.96L78.6038 1.56ZM82.0415 3.12L84.6335 1.62C84.9055 1.46 85.1455 1.44 85.3535 1.56C85.5695 1.68 85.6775 1.9 85.6775 2.22V3.42L84.6335 4.02V2.82L82.0415 4.32V11.28L84.6335 9.78V6.9L83.0735 7.8V6.6L85.6775 5.1V10.38L84.6335 10.98V9.78C84.6335 9.988 84.5855 10.212 84.4895 10.452C84.3935 10.692 84.2655 10.916 84.1055 11.124C83.9455 11.324 83.7735 11.476 83.5895 11.58L82.0415 12.48C81.7615 12.64 81.5175 12.66 81.3095 12.54C81.1015 12.42 80.9975 12.2 80.9975 11.88V4.92C80.9975 4.704 81.0455 4.48 81.1415 4.248C81.2375 4.008 81.3655 3.788 81.5255 3.588C81.6855 3.38 81.8575 3.224 82.0415 3.12ZM84.6335 9.78V10.98L83.5895 10.38V9.18L84.6335 9.78ZM84.6335 6.9V9.78L83.5895 9.18V6.3L84.6335 6.9ZM84.6335 2.82V4.02L83.5895 3.42V2.22L84.6335 2.82ZM85.6775 5.1L83.0735 6.6L82.0415 6L84.6335 4.5L85.6775 5.1ZM83.0735 6.6V7.8L82.0415 7.2V6L83.0735 6.6ZM84.6335 9.78L82.0415 11.28L80.9975 10.68L83.5895 9.18L84.6335 9.78ZM85.3655 1.56C85.1495 1.44 84.9055 1.46 84.6335 1.62L82.0415 3.12C81.8575 3.224 81.6855 3.38 81.5255 3.588C81.3655 3.788 81.2375 4.008 81.1415 4.248C81.0455 4.48 80.9975 4.704 80.9975 4.92V11.88C80.9975 12.2 81.1015 12.42 81.3095 12.54L80.2655 11.94C80.0575 11.82 79.9535 11.6 79.9535 11.28V4.32C79.9535 4.104 80.0015 3.88 80.0975 3.648C80.1935 3.408 80.3215 3.188 80.4815 2.988C80.6415 2.78 80.8135 2.624 80.9975 2.52L83.5895 1.02C83.8695 0.859999 84.1135 0.839999 84.3215 0.96L85.3655 1.56ZM89.6312 10.32V4.32L87.7592 5.4V4.2L92.5352 1.44V2.64L90.6632 3.72V9.72L92.5352 8.64V9.84L87.7592 12.6V11.4L89.6312 10.32ZM89.6312 10.32L87.7592 11.4L86.7152 10.8L88.5872 9.72L89.6312 10.32ZM87.7592 11.4V12.6L86.7152 12V10.8L87.7592 11.4ZM92.5352 8.64L90.6632 9.72L89.6312 9.12L91.5032 8.04L92.5352 8.64ZM89.6312 4.32V10.32L88.5872 9.72V3.72L89.6312 4.32ZM92.5352 1.44L87.7592 4.2L86.7152 3.6L91.5032 0.839999L92.5352 1.44ZM87.7592 4.2V5.4L86.7152 4.8V3.6L87.7592 4.2Z" fill="crimson"/>
</g>
<defs>
<clipPath id="clip0_1_2">
<rect width="96" height="15" fill="white"/>
</clipPath>
</defs>
</svg>
